<svg xmlns="http://www.w3.org/2000/svg" viewBox="0 0 128 128" width="128" height="128" fill="none" role="img" aria-label="avatar frame rank 2"><!-- avatar hole: circle r=41 at 64,64 (size the avatar to 64% of the frame box) --><defs><linearGradient id="mP2" x1="0" y1="0" x2=".35" y2="1"><stop offset="0" stop-color="#d9c4ff"/><stop offset=".48" stop-color="#8D59FD"/><stop offset="1" stop-color="#3d1795"/></linearGradient></defs><g fill="url(#mP2)"><path d="M64 4 76 16 64 24 52 16Z"/><path d="M124 64 112 76 104 64 112 52Z"/><path d="M4 64 16 76 24 64 16 52Z"/><path d="M64 124 52 112 64 104 76 112Z"/></g><circle cx="64" cy="64" r="44.0" stroke="url(#mP2)" stroke-width="6.5"/><circle cx="64" cy="64" r="40.8" stroke="#c4abff" stroke-width="1.6" opacity=".6"/><g stroke="#8D59FD" stroke-width="3.4" stroke-linecap="square"><path d="M22 33 22 22 33 22"/><path d="M106 33 106 22 95 22"/><path d="M22 95 22 106 33 106"/><path d="M106 95 106 106 95 106"/></g></svg>